HIERARCHY
ROOT Hips
{
    OFFSET   0.000000   0.000000   0.000000
    CHANNELS 6 Xposition Yposition Zposition Zrotation Xrotation Yrotation
    JOINT Chest
    {
        OFFSET   0.000000   8.007230   0.000000
        CHANNELS 3 Zrotation Xrotation Yrotation
        JOINT Chest2
        {
            OFFSET   0.000000  22.077100   0.000000
            CHANNELS 3 Zrotation Xrotation Yrotation
            JOINT Neck
            {
                OFFSET   0.000000  23.255100   0.000000
                CHANNELS 3 Zrotation Xrotation Yrotation
                JOINT Head
                {
                    OFFSET   0.000000  14.370100   1.956600
                    CHANNELS 3 Zrotation Xrotation Yrotation
                    End Site
                    {
                        OFFSET   0.000000  19.566000   0.000000
                    }
                }
            }
            JOINT LeftCollar
            {
                OFFSET   3.911900  19.017000  -0.467063
                CHANNELS 3 Zrotation Xrotation Yrotation
                JOINT LeftShoulder
                {
                    OFFSET  10.383700   0.000000   0.000000
                    CHANNELS 3 Zrotation Xrotation Yrotation
                    JOINT LeftElbow
                    {
                        OFFSET  26.662100   0.001193   0.000980
                        CHANNELS 3 Zrotation Xrotation Yrotation
                        JOINT LeftWrist
                        {
                            OFFSET  28.869000  -0.000059  -0.000082
                            CHANNELS 3 Zrotation Xrotation Yrotation
                            JOINT LeftFinger0
                            {
                                OFFSET   2.044650  -2.323450   3.252850
                                CHANNELS 3 Zrotation Xrotation Yrotation
                                JOINT LeftFinger01
                                {
                                    OFFSET   3.088130   0.000000   0.000000
                                    CHANNELS 3 Zrotation Xrotation Yrotation
                                    JOINT LeftFinger02
                                    {
                                        OFFSET   2.639460   0.000000   0.000000
                                        CHANNELS 3 Zrotation Xrotation Yrotation
                                        End Site
                                        {
                                            OFFSET   2.582190   0.000000   0.000000
                                        }
                                    }
                                }
                            }
                            JOINT LeftFinger1
                            {
                                OFFSET   8.364480   0.000000   3.252850
                                CHANNELS 3 Zrotation Xrotation Yrotation
                                JOINT LeftFinger11
                                {
                                    OFFSET   4.646930   0.000000   0.000000
                                    CHANNELS 3 Zrotation Xrotation Yrotation
                                    JOINT LeftFinger12
                                    {
                                        OFFSET   2.323470   0.000000   0.000000
                                        CHANNELS 3 Zrotation Xrotation Yrotation
                                        End Site
                                        {
                                            OFFSET   2.273050   0.000000   0.000000
                                        }
                                    }
                                }
                            }
                            JOINT LeftFinger2
                            {
                                OFFSET   8.364490   0.000016   1.078090
                                CHANNELS 3 Zrotation Xrotation Yrotation
                                JOINT LeftFinger21
                                {
                                    OFFSET   5.111610   0.000000   0.000000
                                    CHANNELS 3 Zrotation Xrotation Yrotation
                                    JOINT LeftFinger22
                                    {
                                        OFFSET   2.788150   0.000016   0.000000
                                        CHANNELS 3 Zrotation Xrotation Yrotation
                                        End Site
                                        {
                                            OFFSET   2.727660   0.000000   0.000000
                                        }
                                    }
                                }
                            }
                            JOINT LeftFinger3
                            {
                                OFFSET   7.899780   0.000015  -1.078090
                                CHANNELS 3 Zrotation Xrotation Yrotation
                                JOINT LeftFinger31
                                {
                                    OFFSET   4.646930   0.000000   0.000000
                                    CHANNELS 3 Zrotation Xrotation Yrotation
                                    JOINT LeftFinger32
                                    {
                                        OFFSET   2.323470   0.000000   0.000000
                                        CHANNELS 3 Zrotation Xrotation Yrotation
                                        End Site
                                        {
                                            OFFSET   2.273050   0.000000   0.000000
                                        }
                                    }
                                }
                            }
                            JOINT LeftFinger4
                            {
                                OFFSET   7.435090   0.000000  -3.252850
                                CHANNELS 3 Zrotation Xrotation Yrotation
                                JOINT LeftFinger41
                                {
                                    OFFSET   3.717550   0.000000   0.000000
                                    CHANNELS 3 Zrotation Xrotation Yrotation
                                    JOINT LeftFinger42
                                    {
                                        OFFSET   1.858770   0.000000   0.000000
                                        CHANNELS 3 Zrotation Xrotation Yrotation
                                        End Site
                                        {
                                            OFFSET   1.818440   0.000000   0.000000
                                        }
                                    }
                                }
                            }
                        }
                    }
                }
            }
            JOINT RightCollar
            {
                OFFSET  -3.911910  19.017000  -0.467062
                CHANNELS 3 Zrotation Xrotation Yrotation
                JOINT RightShoulder
                {
                    OFFSET -10.383700   0.000014   0.000000
                    CHANNELS 3 Zrotation Xrotation Yrotation
                    JOINT RightElbow
                    {
                        OFFSET -26.662100   0.001225   0.001091
                        CHANNELS 3 Zrotation Xrotation Yrotation
                        JOINT RightWrist
                        {
                            OFFSET -28.869000  -0.000020  -0.000085
                            CHANNELS 3 Zrotation Xrotation Yrotation
                            JOINT RightFinger0
                            {
                                OFFSET  -2.044650  -2.323490   3.252850
                                CHANNELS 3 Zrotation Xrotation Yrotation
                                JOINT RightFinger01
                                {
                                    OFFSET  -3.088130   0.000000   0.000000
                                    CHANNELS 3 Zrotation Xrotation Yrotation
                                    JOINT RightFinger02
                                    {
                                        OFFSET  -2.639460   0.000000   0.000000
                                        CHANNELS 3 Zrotation Xrotation Yrotation
                                        End Site
                                        {
                                            OFFSET  -2.582190   0.000000   0.000000
                                        }
                                    }
                                }
                            }
                            JOINT RightFinger1
                            {
                                OFFSET  -8.364480   0.000000   3.252850
                                CHANNELS 3 Zrotation Xrotation Yrotation
                                JOINT RightFinger11
                                {
                                    OFFSET  -4.646930   0.000000   0.000000
                                    CHANNELS 3 Zrotation Xrotation Yrotation
                                    JOINT RightFinger12
                                    {
                                        OFFSET  -2.323470   0.000000   0.000000
                                        CHANNELS 3 Zrotation Xrotation Yrotation
                                        End Site
                                        {
                                            OFFSET  -2.273050   0.000000   0.000000
                                        }
                                    }
                                }
                            }
                            JOINT RightFinger2
                            {
                                OFFSET  -8.364480   0.000000   1.078090
                                CHANNELS 3 Zrotation Xrotation Yrotation
                                JOINT RightFinger21
                                {
                                    OFFSET  -5.111620   0.000000   0.000000
                                    CHANNELS 3 Zrotation Xrotation Yrotation
                                    JOINT RightFinger22
                                    {
                                        OFFSET  -2.788160   0.000000   0.000000
                                        CHANNELS 3 Zrotation Xrotation Yrotation
                                        End Site
                                        {
                                            OFFSET  -2.727660   0.000000   0.000000
                                        }
                                    }
                                }
                            }
                            JOINT RightFinger3
                            {
                                OFFSET  -7.899780   0.000000  -1.078090
                                CHANNELS 3 Zrotation Xrotation Yrotation
                                JOINT RightFinger31
                                {
                                    OFFSET  -4.646930   0.000000   0.000000
                                    CHANNELS 3 Zrotation Xrotation Yrotation
                                    JOINT RightFinger32
                                    {
                                        OFFSET  -2.323470   0.000000   0.000000
                                        CHANNELS 3 Zrotation Xrotation Yrotation
                                        End Site
                                        {
                                            OFFSET  -2.273050   0.000000   0.000000
                                        }
                                    }
                                }
                            }
                            JOINT RightFinger4
                            {
                                OFFSET  -7.435090   0.000000  -3.252850
                                CHANNELS 3 Zrotation Xrotation Yrotation
                                JOINT RightFinger41
                                {
                                    OFFSET  -3.717550   0.000000   0.000000
                                    CHANNELS 3 Zrotation Xrotation Yrotation
                                    JOINT RightFinger42
                                    {
                                        OFFSET  -1.858760   0.000000   0.000000
                                        CHANNELS 3 Zrotation Xrotation Yrotation
                                        End Site
                                        {
                                            OFFSET  -1.818440   0.000000   0.000000
                                        }
                                    }
                                }
                            }
                        }
                    }
                }
            }
        }
    }
    JOINT LeftHip
    {
        OFFSET   9.783030   0.000000   0.000000
        CHANNELS 3 Zrotation Xrotation Yrotation
        JOINT LeftKnee
        {
            OFFSET   0.000063 -41.789100   0.000608
            CHANNELS 3 Zrotation Xrotation Yrotation
            JOINT LeftAnkle
            {
                OFFSET   0.000048 -41.133200  -0.000184
                CHANNELS 3 Zrotation Xrotation Yrotation
                JOINT LeftToe
                {
                    OFFSET   0.000000  -6.358960  14.674500
                    CHANNELS 3 Zrotation Xrotation Yrotation
                    End Site
                    {
                        OFFSET   0.000000   0.000000   3.913200
                    }
                }
            }
        }
    }
    JOINT RightHip
    {
        OFFSET  -9.783030   0.000000   0.000000
        CHANNELS 3 Zrotation Xrotation Yrotation
        JOINT RightKnee
        {
            OFFSET   0.000071 -41.789100   0.001239
            CHANNELS 3 Zrotation Xrotation Yrotation
            JOINT RightAnkle
            {
                OFFSET   0.000037 -41.133200  -0.000166
                CHANNELS 3 Zrotation Xrotation Yrotation
                JOINT RightToe
                {
                    OFFSET   0.000000  -6.358960  14.674500
                    CHANNELS 3 Zrotation Xrotation Yrotation
                    End Site
                    {
                        OFFSET   0.000000   0.000000   3.913200
                    }
                }
            }
        }
    }
}
MOTION
Frames: 5
Frame Time:   0.016667
  0.253653  89.556900   1.099620  -2.110050  -6.011400  -0.575112   0.756475   2.359880  -0.164836   1.521680   4.717370  -0.361332   0.857665  -0.206488   0.003227   1.401680  -0.417994  -0.447192  -1.511320  -1.768240   2.234530 -78.981800  16.186500   5.057150  -0.161394  -2.154230 -18.797300  14.837400 -15.254100   5.244030  40.048000  34.330400 -71.156600 -28.478100   0.005583   0.003037  -9.236160   0.006320   0.005723 -30.445700   4.315880  -7.322420 -25.135600  -0.000239   0.001300 -17.596500   0.001205  -0.008067 -28.763400  -1.292510   2.352830 -42.078700   0.003004   0.000641 -28.024400   0.005328   0.000714 -28.768600  -1.292620   2.352770 -42.311700  -0.002992  -0.007680 -28.179600   0.000812  -0.006556 -33.521100  -1.482960   2.237720 -50.323600   0.001983  -0.002289 -33.515500   0.005336  -0.004651   5.952160   0.981701   3.508390  74.050400  14.573400  -8.638910  -3.378780  -1.858360  15.877000 -12.079800 -19.308300  -1.497420 -50.228200  44.237300  87.857600  23.871900   0.005451  -0.002325   6.931120   0.008986   0.000166  27.636000   8.727110  16.168200  23.628600  -0.005531  -0.000348  16.536800  -0.001521  -0.001590  27.768100   5.516960  10.328800  34.039700  -0.004641  -0.001720  22.670500  -0.003067  -0.000724  27.096500   4.850980   9.384900  29.193400  -0.003183  -0.000425  19.442800  -0.002215   0.012446  32.020800   0.879406   1.409490  48.047600  -0.009204   0.013286  31.999700  -0.004105  -0.004735   2.897070   8.571540   2.851000   0.889870   0.001830   6.860780  -2.334630  -3.425720   1.210860  -0.000000   0.000000  -0.000000   2.422780   8.013140  -6.537770   0.063128   0.866510  -7.635650   0.382635  -3.898530   2.986860   0.000000   0.000000   0.000000
  0.253713  89.556900   1.099740  -2.110880  -6.020230  -0.572203   0.756567   2.362030  -0.162181   1.521770   4.721700  -0.356048   0.855776  -0.219490   0.003228   1.399470  -0.444524  -0.461632  -1.511420  -1.768240   2.231270 -78.981400  16.176000   5.057290  -0.156003  -2.136820 -18.810400  14.839200 -15.254100   5.245590  40.051000  34.322200 -71.140800 -28.469200   0.005580   0.003045  -9.236140   0.006319   0.005868 -30.436400   4.315930  -7.319430 -25.128000  -0.000239   0.001301 -17.596500   0.001203  -0.008067 -28.763200  -1.294300   2.356110 -42.068200   0.003004   0.000641 -28.017400   0.005326   0.000712 -28.768500  -1.294410   2.356050 -42.303400  -0.002986  -0.007675 -28.174000   0.000811  -0.006555 -33.521200  -1.484970   2.240870 -50.324000   0.001983  -0.002289 -33.515800   0.005335  -0.004654   5.951820   0.989150   3.501840  74.047500  14.581900  -8.639250  -3.375560  -1.866160  15.880300 -12.057200 -19.308200  -1.504260 -50.242400  44.241500  87.865600  23.868900   0.005450  -0.002342   6.931340   0.008993   0.000165  27.633100   8.727110  16.168200  23.625200  -0.005529  -0.000351  16.535800  -0.001522  -0.001589  27.768100   5.516910  10.330000  34.028000  -0.004641  -0.001722  22.662700  -0.003067  -0.000727  27.096500   4.850980   9.384900  29.189400  -0.003182  -0.000426  19.440100  -0.002214   0.012445  32.020800   0.879298   1.409440  48.047600  -0.009206   0.013284  31.999700  -0.004105  -0.004736   2.896720   8.576160   2.850860   0.893219   0.001064   6.860980  -2.334270  -3.422020   1.207570  -0.000000   0.000000   0.000000   2.424070   8.023940  -6.540100   0.063208   0.861223  -7.635640   0.382481  -3.896870   2.986860  -0.000000   0.000000   0.000000
  0.253818  89.556900   1.099870  -2.112260  -6.035240  -0.565912   0.756725   2.367860  -0.158379   1.521950   4.733420  -0.348520   0.852021  -0.241292   0.003234   1.395190  -0.488881  -0.482548  -1.511520  -1.768250   2.228000 -78.981000  16.165600   5.057440  -0.150852  -2.119300 -18.832500  14.844500 -15.254000   5.252570  40.054000  34.314000 -71.125000 -28.460400   0.005568   0.003053  -9.236110   0.006318   0.006067 -30.427300   4.316020  -7.313450 -25.120500  -0.000240   0.001304 -17.596500   0.001200  -0.008067 -28.762900  -1.298230   2.363270 -42.057700   0.003000   0.000641 -28.010400   0.005319   0.000704 -28.768200  -1.298340   2.363210 -42.295100  -0.002970  -0.007660 -28.168500   0.000808  -0.006554 -33.521300  -1.489430   2.247720 -50.324600   0.001981  -0.002293 -33.516200   0.005332  -0.004661   5.951480   0.996599   3.495300  74.041100  14.590500  -8.639590  -3.369030  -1.877380  15.886300 -12.024400 -19.308200  -1.514450 -50.262700  44.251800  87.873200  23.865800   0.005447  -0.002360   6.932880   0.009000   0.000164  27.624700   8.727110  16.168200  23.618200  -0.005527  -0.000356  16.532700  -0.001529  -0.001587  27.767900   5.516790  10.332800  34.003300  -0.004638  -0.001725  22.646200  -0.003067  -0.000730  27.096500   4.850980   9.384900  29.178100  -0.003174  -0.000433  19.432600  -0.002214   0.012442  32.020800   0.879190   1.409330  48.047600  -0.009211   0.013281  31.999700  -0.004107  -0.004739   2.896400   8.580780   2.850610   0.899333   0.000298   6.861180  -2.334090  -3.418330   1.201270   0.000000   0.000000   0.000000   2.426480   8.040840  -6.545470   0.063289   0.855935  -7.635610   0.382290  -3.894510   2.986850  -0.000000   0.000000   0.000000
  0.253932  89.556900   1.097780  -2.113030  -6.047670  -0.557408   0.756885   2.377420  -0.157026   1.522260   4.752550  -0.345948   0.846444  -0.258515   0.003249   1.389270  -0.523565  -0.492151  -1.507190  -1.774720   2.234440 -78.979400  16.169600   5.055350  -0.147804  -2.121800 -18.852600  14.856400 -15.262100   5.269270  40.054400  34.314100 -71.125500 -28.460700   0.005544   0.003048  -9.236100   0.006327   0.006135 -30.430300   4.316020  -7.305950 -25.122900  -0.000240   0.001311 -17.596500   0.001196  -0.012726 -28.762400  -1.304960   2.373820 -42.063400   0.002990   0.000643 -28.014300   0.005309   0.000693 -28.767700  -1.305070   2.373770 -42.299100  -0.002951  -0.007635 -28.171300   0.000801  -0.006550 -33.520900  -1.497200   2.257730 -50.324800   0.001974  -0.002304 -33.516300   0.005331  -0.004670   5.956370   0.992022   3.496350  74.031500  14.587200  -8.644530  -3.361420  -1.883230  15.894100 -12.008300 -19.311400  -1.518760 -50.270400  44.268000  87.861500  23.895500   0.005440  -0.002359   6.948390   0.009000   0.000164  27.613500   8.711730  16.145600  23.607100  -0.005533  -0.000360  16.525200  -0.001543  -0.001590  27.767400   5.516610  10.337800  33.968500  -0.004623  -0.001730  22.623000  -0.003058  -0.000731  27.092800   4.851690   9.388270  29.157100  -0.003159  -0.000447  19.418600  -0.002203   0.012436  32.015400   0.879217   1.409180  48.039400  -0.009220   0.013279  31.994300  -0.004113  -0.004743   2.897310   8.575800   2.850370   0.903323   0.024356   6.861040  -2.335410  -3.427070   1.193920   0.000000   0.000000   0.000000   2.429130   8.051310  -6.555190   0.063070   0.856328  -7.635570   0.382226  -3.893340   2.985840  -0.000000   0.000000   0.000000
  0.254002  89.556900   1.094550  -2.114360  -6.060860  -0.548063   0.757000   2.389380  -0.155662   1.522490   4.776500  -0.343384   0.842734  -0.276887   0.003265   1.385200  -0.560617  -0.499009  -1.499320  -1.786790   2.243430 -78.972200  16.187600   5.049940  -0.145459  -2.134760 -18.869500  14.867100 -15.275000   5.287920  40.057000  34.315500 -71.128300 -28.462400   0.005514   0.003044  -9.236100   0.006341   0.006149 -30.435900   4.315550  -7.298430 -25.127400  -0.000242   0.001321 -17.596500   0.001191  -0.020110 -28.761900  -1.309550   2.383870 -42.071500   0.002977   0.000645 -28.019700   0.005296   0.000679 -28.767300  -1.309670   2.383820 -42.303200  -0.002926  -0.007600 -28.174000   0.000793  -0.006546 -33.520400  -1.502520   2.267260 -50.324900   0.001964  -0.002318 -33.516400   0.005330  -0.004681   5.966820   0.983342   3.497790  74.025800  14.583900  -8.650460  -3.352330  -1.885670  15.899200 -11.998800 -19.318800  -1.524370 -50.271400  44.286000  87.849600  23.942400   0.005432  -0.002352   6.971180   0.008998   0.000164  27.612000   8.689270  16.110500  23.599600  -0.005543  -0.000364  16.519800  -0.001562  -0.001596  27.766800   5.516450  10.342500  33.935500  -0.004600  -0.001735  22.601000  -0.003042  -0.000732  27.087000   4.852930   9.393470  29.135100  -0.003137  -0.000466  19.403900  -0.002185   0.012428  32.008100   0.879406   1.409030  48.028300  -0.009233   0.013275  31.986900  -0.004122  -0.004750   2.900910   8.569510   2.850210   0.904549   0.063705   6.860050  -2.337500  -3.442280   1.186800  -0.000000   0.000000   0.000000   2.431840   8.061940  -6.561990   0.062852   0.856720  -7.635550   0.382112  -3.892880   2.982700  -0.000000   0.000000  -0.000000
